<svg width="208" height="40" viewBox="0 0 208 40" fill="none" xmlns="http://www.w3.org/2000/svg">
<rect x="0.5" y="0.5" width="207" height="39" stroke="#222226"/>
<path d="M13.464 25V15.4H16.32C17.288 15.4 18.052 15.632 18.612 16.096C19.172 16.56 19.452 17.196 19.452 18.004C19.452 18.468 19.328 18.872 19.08 19.216C18.84 19.56 18.5 19.804 18.06 19.948V20.14C18.556 20.292 18.94 20.564 19.212 20.956C19.484 21.348 19.62 21.816 19.62 22.36C19.62 23.176 19.324 23.82 18.732 24.292C18.148 24.764 17.344 25 16.32 25H13.464ZM14.832 23.728H16.32C16.944 23.728 17.42 23.6 17.748 23.344C18.084 23.08 18.252 22.712 18.252 22.24C18.252 21.768 18.084 21.404 17.748 21.148C17.42 20.884 16.944 20.752 16.32 20.752H14.832V23.728ZM14.832 19.552H16.32C16.912 19.552 17.364 19.428 17.676 19.18C17.988 18.932 18.144 18.576 18.144 18.112C18.144 17.648 17.988 17.292 17.676 17.044C17.364 16.796 16.912 16.672 16.32 16.672H14.832V19.552ZM22.0823 25V15.4H27.7583V16.684H23.4503V19.564H27.1583V20.764H23.4503V23.716H27.6383V25H22.0823ZM30.4607 15.4H31.8287V25H30.4607V15.4ZM34.7927 25L31.4207 20.356L35.0087 15.4H36.5927L33.0407 20.296L36.4607 25H34.7927ZM38.323 25V23.716H40.723V16.684H38.323V15.4H44.491V16.684H42.091V23.716H44.491V25H38.323ZM49.5934 25.192C48.9614 25.192 48.4134 25.072 47.9494 24.832C47.4934 24.584 47.1414 24.236 46.8934 23.788C46.6534 23.332 46.5334 22.788 46.5334 22.156V20.8H47.8774V22.036C47.8774 22.62 48.0294 23.08 48.3334 23.416C48.6374 23.744 49.0574 23.908 49.5934 23.908C50.1374 23.908 50.5614 23.744 50.8654 23.416C51.1694 23.08 51.3214 22.62 51.3214 22.036V16.72H47.2294V15.4H52.6894V22.156C52.6894 22.788 52.5654 23.332 52.3174 23.788C52.0694 24.236 51.7134 24.584 51.2494 24.832C50.7934 25.072 50.2414 25.192 49.5934 25.192ZM55.6677 15.4H57.0357V25H55.6677V15.4ZM59.9997 25L56.6277 20.356L60.2157 15.4H61.7997L58.2477 20.296L61.6677 25H59.9997ZM75.0164 25.192C73.8484 25.192 72.9724 24.776 72.3884 23.944C71.8044 23.112 71.5124 21.864 71.5124 20.2C71.5124 18.536 71.8044 17.288 72.3884 16.456C72.9724 15.624 73.8484 15.208 75.0164 15.208C76.1844 15.208 77.0604 15.624 77.6444 16.456C78.2284 17.288 78.5204 18.536 78.5204 20.2C78.5204 21.864 78.2284 23.112 77.6444 23.944C77.0604 24.776 76.1844 25.192 75.0164 25.192ZM75.0164 23.908C75.7524 23.908 76.2924 23.608 76.6364 23.008C76.9804 22.408 77.1524 21.472 77.1524 20.2C77.1524 18.928 76.9804 17.992 76.6364 17.392C76.2924 16.792 75.7524 16.492 75.0164 16.492C74.2804 16.492 73.7404 16.792 73.3964 17.392C73.0524 17.992 72.8804 18.928 72.8804 20.2C72.8804 21.472 73.0524 22.408 73.3964 23.008C73.7404 23.608 74.2804 23.908 75.0164 23.908ZM80.2508 25V15.4H82.5788L85.2428 24.124H85.3748L85.3268 21.364V15.4H86.5868V25H84.2588L81.5948 16.276H81.4628L81.5108 19.036V25H80.2508ZM88.8571 25V22.684L93.8731 16.804V16.684H88.8571V15.4H94.7851V17.716L89.7691 23.596V23.716H94.7851V25H88.8571ZM97.7034 25V15.4H103.379V16.684H99.0714V19.564H102.779V20.764H99.0714V23.716H103.259V25H97.7034ZM114.988 25V15.4H116.356V23.716H120.424V25H114.988ZM122.91 25V15.4H128.586V16.684H124.278V19.564H127.986V20.764H124.278V23.716H128.466V25H122.91ZM130.749 25V15.4H133.437C134.733 15.4 135.705 15.804 136.353 16.612C137.009 17.412 137.337 18.608 137.337 20.2C137.337 21.792 137.009 22.992 136.353 23.8C135.705 24.6 134.733 25 133.437 25H130.749ZM132.117 23.716H133.437C134.285 23.716 134.917 23.428 135.333 22.852C135.757 22.268 135.969 21.384 135.969 20.2C135.969 19.008 135.757 18.124 135.333 17.548C134.917 16.972 134.285 16.684 133.437 16.684H132.117V23.716ZM139.715 25V15.4H145.391V16.684H141.083V19.564H144.791V20.764H141.083V23.716H145.271V25H139.715ZM147.47 25V15.4H149.798L152.462 24.124H152.594L152.546 21.364V15.4H153.806V25H151.478L148.814 16.276H148.682L148.73 19.036V25H147.47Z" fill="#222226"/>
<rect x="167" width="1" height="40" fill="#222226"/>
<path d="M188 15L193 20.0001L188 25.0002" stroke="#222226" stroke-width="1.5" stroke-miterlimit="4.62023"/>
<path d="M183 20L193 20" stroke="#222226" stroke-width="1.5" stroke-miterlimit="4.62023" stroke-linejoin="round"/>
</svg>
