<svg width="248" height="52" viewBox="0 0 248 52" fill="none" xmlns="http://www.w3.org/2000/svg">
<rect x="0.5" y="0.5" width="247" height="51" fill="white"/>
<rect x="0.5" y="0.5" width="247" height="51" stroke="#222226"/>
<path d="M17.274 32V20.8H21.264C22.4213 20.8 23.322 21.0707 23.966 21.612C24.61 22.144 24.932 22.8907 24.932 23.852C24.932 24.3373 24.8013 24.7713 24.54 25.154C24.2787 25.5273 23.91 25.8073 23.434 25.994V26.218C23.9753 26.4047 24.3953 26.7267 24.694 27.184C25.002 27.632 25.156 28.1733 25.156 28.808C25.156 29.8067 24.8153 30.5907 24.134 31.16C23.4527 31.72 22.51 32 21.306 32H17.274ZM19.64 29.802H21.278C21.7727 29.802 22.1507 29.6993 22.412 29.494C22.6827 29.2793 22.818 28.9807 22.818 28.598C22.818 28.206 22.6827 27.9027 22.412 27.688C22.1507 27.464 21.7727 27.352 21.278 27.352H19.64V29.802ZM19.64 25.336H21.236C21.7213 25.336 22.09 25.238 22.342 25.042C22.6033 24.8367 22.734 24.5473 22.734 24.174C22.734 23.8007 22.6033 23.5113 22.342 23.306C22.09 23.1007 21.7213 22.998 21.236 22.998H19.64V25.336ZM27.3147 32V20.8H34.6367V22.844H29.6807V25.42H33.9367V27.408H29.6807V29.956H34.4967V32H27.3147ZM37.1035 20.8H39.4555V32H37.1035V20.8ZM42.1295 32L39.0075 26.596L42.4515 20.8H44.9855L41.6115 26.484L44.7895 32H42.1295ZM46.3742 32V29.76H49.1322V23.04H46.3742V20.8H54.2422V23.04H51.4842V29.76H54.2422V32H46.3742ZM59.8449 32.266C59.0329 32.266 58.3329 32.112 57.7449 31.804C57.1663 31.496 56.7183 31.0573 56.4009 30.488C56.0836 29.9093 55.9249 29.2233 55.9249 28.43V27.1H58.2489V28.346C58.2489 28.9153 58.3843 29.354 58.6549 29.662C58.9349 29.9607 59.3316 30.11 59.8449 30.11C60.3583 30.11 60.7503 29.9607 61.0209 29.662C61.3009 29.354 61.4409 28.9153 61.4409 28.346V23.068H56.7229V20.8H63.8069V28.43C63.8069 29.2233 63.6483 29.9093 63.3309 30.488C63.0136 31.0573 62.5563 31.496 61.9589 31.804C61.3709 32.112 60.6663 32.266 59.8449 32.266ZM66.5117 20.8H68.8637V32H66.5117V20.8ZM71.5377 32L68.4157 26.596L71.8597 20.8H74.3937L71.0197 26.484L74.1977 32H71.5377ZM89.5191 32.266C88.0725 32.266 86.9758 31.7713 86.2291 30.782C85.4825 29.7927 85.1091 28.332 85.1091 26.4C85.1091 24.468 85.4825 23.0073 86.2291 22.018C86.9758 21.0287 88.0725 20.534 89.5191 20.534C90.9658 20.534 92.0625 21.0287 92.8091 22.018C93.5558 23.0073 93.9291 24.468 93.9291 26.4C93.9291 28.332 93.5558 29.7927 92.8091 30.782C92.0625 31.7713 90.9658 32.266 89.5191 32.266ZM89.5191 30.11C90.2098 30.11 90.7231 29.8067 91.0591 29.2C91.3951 28.584 91.5631 27.6507 91.5631 26.4C91.5631 25.1493 91.3951 24.2207 91.0591 23.614C90.7231 22.998 90.2098 22.69 89.5191 22.69C88.8285 22.69 88.3151 22.998 87.9791 23.614C87.6431 24.2207 87.4751 25.1493 87.4751 26.4C87.4751 27.6507 87.6431 28.584 87.9791 29.2C88.3151 29.8067 88.8285 30.11 89.5191 30.11ZM95.3039 32V20.8H99.0139L101.184 30.208H101.422L101.296 25.952V20.8H103.34V32H99.6299L97.4599 22.592H97.2219L97.3479 26.848V32H95.3039ZM105.429 32V28.542L110.945 23.096V22.844H105.429V20.8H112.821V24.258L107.305 29.704V29.956H112.821V32H105.429ZM115.539 32V20.8H122.861V22.844H117.905V25.42H122.161V27.408H117.905V29.956H122.721V32H115.539ZM136.419 20.8L138.477 30.278H138.715L140.801 20.8H143.027L140.507 32H136.559L134.039 20.8H136.419ZM144.402 32V29.76H147.16V23.04H144.402V20.8H152.27V23.04H149.512V29.76H152.27V32H144.402ZM154.204 32V20.8H157.732C159.3 20.8 160.495 21.276 161.316 22.228C162.138 23.18 162.548 24.5707 162.548 26.4C162.548 28.22 162.138 29.6107 161.316 30.572C160.495 31.524 159.3 32 157.732 32H154.204ZM156.57 29.802H157.732C158.554 29.802 159.165 29.522 159.566 28.962C159.977 28.402 160.182 27.548 160.182 26.4C160.182 25.252 159.977 24.398 159.566 23.838C159.165 23.278 158.554 22.998 157.732 22.998H156.57V29.802ZM164.553 32V20.8H171.875V22.844H166.919V25.42H171.175V27.408H166.919V29.956H171.735V32H164.553ZM177.744 32.266C176.297 32.266 175.2 31.7713 174.454 30.782C173.707 29.7927 173.334 28.332 173.334 26.4C173.334 24.468 173.707 23.0073 174.454 22.018C175.2 21.0287 176.297 20.534 177.744 20.534C179.19 20.534 180.287 21.0287 181.034 22.018C181.78 23.0073 182.154 24.468 182.154 26.4C182.154 28.332 181.78 29.7927 181.034 30.782C180.287 31.7713 179.19 32.266 177.744 32.266ZM177.744 30.11C178.434 30.11 178.948 29.8067 179.284 29.2C179.62 28.584 179.788 27.6507 179.788 26.4C179.788 25.1493 179.62 24.2207 179.284 23.614C178.948 22.998 178.434 22.69 177.744 22.69C177.053 22.69 176.54 22.998 176.204 23.614C175.868 24.2207 175.7 25.1493 175.7 26.4C175.7 27.6507 175.868 28.584 176.204 29.2C176.54 29.8067 177.053 30.11 177.744 30.11Z" fill="#222226"/>
<rect x="199" width="1" height="52" fill="#222226"/>
<path d="M224 21L229 26.0001L224 31.0002" stroke="#222226" stroke-width="1.5" stroke-miterlimit="4.62023"/>
<path d="M219 26L229 26" stroke="#222226" stroke-width="1.5" stroke-miterlimit="4.62023" stroke-linejoin="round"/>
</svg>
