<svg width="107" height="80" viewBox="0 0 107 80" fill="none" xmlns="http://www.w3.org/2000/svg">
<g clip-path="url(#clip0_6_12597)">
<path d="M72.3092 34.6337H11.0151V11.0977H72.3092V34.6337ZM12.3411 33.297H70.9832V12.4329H12.3411V33.297Z" fill="#222226"/>
<path d="M89.3605 57.6412H5.50537V5.54785H89.3605V57.6412ZM6.83134 56.3044H88.0394V6.88311H6.83134V56.3044Z" fill="#222226"/>
<path d="M106.667 79.9999H0V-0.00292969H106.667V79.9999ZM1.32106 78.6632H105.341V1.33381H1.32106V78.6632Z" fill="#222226"/>
<path fill-rule="evenodd" clip-rule="evenodd" d="M24.4958 23.154C24.4958 20.7879 23.0549 19.6685 20.9682 19.6685H19.6506V26.6394H20.9682C23.0554 26.6394 24.4958 25.519 24.4958 23.154ZM18.1675 18.3135H20.9397C23.8652 18.3135 26.0069 19.9874 26.0069 23.154C26.0069 26.3206 23.8652 27.994 20.9397 27.994H18.1675V18.3135Z" fill="#222226"/>
<path fill-rule="evenodd" clip-rule="evenodd" d="M35.9385 24.5506C35.9385 26.8875 34.3596 28.1885 32.1895 28.1885C30.0193 28.1885 28.4429 26.8879 28.4429 24.5506V18.3125H29.925V24.5071C29.9014 24.8147 29.9435 25.1238 30.0485 25.4137C30.1534 25.7035 30.3187 25.9674 30.5333 26.1874C30.7478 26.4074 31.0067 26.5785 31.2924 26.6892C31.5781 26.7999 31.884 26.8476 32.1895 26.829C32.4952 26.8479 32.8014 26.8005 33.0875 26.69C33.3735 26.5795 33.6327 26.4084 33.8476 26.1884C34.0625 25.9684 34.2282 25.7044 34.3333 25.4144C34.4385 25.1244 34.4808 24.815 34.4574 24.5071V18.3145H35.9385V24.5506Z" fill="#222226"/>
<path fill-rule="evenodd" clip-rule="evenodd" d="M37.936 18.3145H45.3487V19.6715H42.382V27.9949H40.9008V19.6715H37.9351L37.936 18.3145Z" fill="#222226"/>
<path fill-rule="evenodd" clip-rule="evenodd" d="M55.6268 25.6432C54.6259 27.2888 53.4988 28.1884 51.4269 28.1884C48.6939 28.1884 46.6632 26.1125 46.6632 23.1543C46.6383 22.5003 46.745 21.8479 46.977 21.2365C47.2089 20.6252 47.5614 20.0676 48.0129 19.5973C48.4645 19.127 49.0059 18.7538 49.6045 18.5002C50.2031 18.2466 50.8464 18.1179 51.4956 18.1218C52.348 18.087 53.1917 18.3057 53.9217 18.7508C54.6516 19.1959 55.2355 19.8477 55.6007 20.6249L54.4221 21.4819C53.7346 20.1412 52.7867 19.4768 51.4701 19.4768C49.6579 19.4768 48.1743 21.0255 48.1743 23.1563C48.1743 25.258 49.5597 26.8338 51.4563 26.8338C52.746 26.8338 53.7611 26.2115 54.4894 24.8292L55.6268 25.6432Z" fill="#222226"/>
<path fill-rule="evenodd" clip-rule="evenodd" d="M58.0923 18.3145H59.5734V22.3796H64.0483V18.3145H65.5329V27.9949H64.0483V23.7347H59.5734V27.9949H58.0923V18.3145Z" fill="#222226"/>
<path fill-rule="evenodd" clip-rule="evenodd" d="M19.1135 45.6027C19.1135 43.2372 17.6731 42.1173 15.5864 42.1173H14.2683V49.0881H15.5864C17.6736 49.0881 19.1135 47.9687 19.1135 45.6027ZM12.7856 40.7627H15.5579C18.4829 40.7627 20.6246 42.4366 20.6246 45.6027C20.6246 48.7688 18.4829 50.4427 15.5579 50.4427H12.7856V40.7627Z" fill="#222226"/>
<path fill-rule="evenodd" clip-rule="evenodd" d="M25.4634 50.4422H26.9445V40.7617H25.4634V50.4422Z" fill="#222226"/>
<path fill-rule="evenodd" clip-rule="evenodd" d="M39.4303 48.9489C39.1383 49.4845 38.703 49.9266 38.1738 50.2248C37.6447 50.523 37.0431 50.6654 36.4376 50.6357C33.7326 50.6357 31.7549 48.5201 31.7549 45.6016C31.7362 44.9479 31.8477 44.2972 32.0827 43.6877C32.3178 43.0782 32.6716 42.5224 33.1234 42.0532C33.5751 41.5839 34.1156 41.2107 34.7128 40.9556C35.3101 40.7005 35.952 40.5687 36.6006 40.568C37.4337 40.5396 38.258 40.7461 38.9811 41.1641C39.7041 41.5822 40.2971 42.1953 40.6934 42.9345L39.5664 43.7222C39.293 43.1612 38.8658 42.691 38.3353 42.3673C37.8048 42.0437 37.1934 41.8802 36.5736 41.8963C34.7752 41.8963 33.2661 43.3489 33.2661 45.6026C33.2661 47.8018 34.5699 49.2811 36.4636 49.2811C38.207 49.2811 39.0861 48.1607 39.2928 46.6546H36.0516V45.4224H40.7735V50.4421H39.7864L39.4303 48.9489Z" fill="#222226"/>
<path fill-rule="evenodd" clip-rule="evenodd" d="M45.918 50.4422H47.3991V40.7617H45.918V50.4422Z" fill="#222226"/>
<path fill-rule="evenodd" clip-rule="evenodd" d="M51.6924 40.7617H59.1036V42.1163H56.1378V50.4422H54.6567V42.1163H51.6909L51.6924 40.7617Z" fill="#222226"/>
<path fill-rule="evenodd" clip-rule="evenodd" d="M65.6773 43.3896L64.5094 46.4468H67.5022L66.3373 43.3896C66.1438 42.8916 66.0078 42.4633 66.0078 42.4633C66.0078 42.4633 65.8708 42.8916 65.6773 43.3896ZM65.2652 40.7627H66.7498L70.5917 50.4432H69.0275L67.9962 47.7469H64.0154L62.9841 50.4432H61.4189L65.2652 40.7627Z" fill="#222226"/>
<path fill-rule="evenodd" clip-rule="evenodd" d="M74.8335 40.7617H76.3156V49.1144H81.1343V50.4422H74.8335V40.7617Z" fill="#222226"/>
<path fill-rule="evenodd" clip-rule="evenodd" d="M12.0591 66.3535L10.8913 69.4107H13.884L12.7162 66.3535C12.5247 65.8554 12.3867 65.4272 12.3867 65.4272C12.3867 65.4272 12.2501 65.8554 12.0591 66.3535ZM11.6461 63.7266H13.1287L16.973 73.4071H15.4069L14.3756 70.7108H10.3967L9.36542 73.4071H7.80078L11.6461 63.7266Z" fill="#222226"/>
<path fill-rule="evenodd" clip-rule="evenodd" d="M28.3166 71.9128C28.0248 72.4485 27.5894 72.8908 27.0602 73.189C26.5311 73.4873 25.9294 73.6295 25.3238 73.5996C22.6193 73.5996 20.6417 71.484 20.6417 68.566C20.6229 67.9123 20.7343 67.2615 20.9693 66.652C21.2043 66.0425 21.558 65.4867 22.0097 65.0174C22.4614 64.5481 23.0019 64.1748 23.5991 63.9197C24.1963 63.6645 24.8382 63.5327 25.4869 63.5319C26.3198 63.5034 27.1441 63.7096 27.8672 64.1275C28.5902 64.5454 29.1833 65.1584 29.5797 65.8974L28.4531 66.6851C28.1797 66.1241 27.7525 65.6539 27.222 65.3302C26.6916 65.0066 26.0802 64.8431 25.4603 64.8592C23.6619 64.8592 22.1528 66.3118 22.1528 68.566C22.1528 70.7647 23.4567 72.2435 25.3508 72.2435C27.0942 72.2435 27.9733 71.1231 28.18 69.6195H24.9388V68.3863H29.6607V73.4065H28.6741L28.3166 71.9128Z" fill="#222226"/>
<path fill-rule="evenodd" clip-rule="evenodd" d="M35.1187 63.7266H41.4327V65.0544H36.5998V67.7368H41.0487V69.0646H36.6008V72.0792H41.4745V73.4071H35.1196L35.1187 63.7266Z" fill="#222226"/>
<path fill-rule="evenodd" clip-rule="evenodd" d="M46.6768 63.7266H48.1859L52.4982 70.4727C52.6493 70.7091 52.7872 70.9539 52.9113 71.2059V63.7266H54.3354V73.4075H52.8263L48.5154 66.6605C48.3647 66.4245 48.2275 66.18 48.1044 65.9282V73.4075H46.6768V63.7266Z" fill="#222226"/>
<path fill-rule="evenodd" clip-rule="evenodd" d="M68.4398 71.0558C67.4389 72.7014 66.3119 73.6005 64.2399 73.6005C61.507 73.6005 59.4763 71.5251 59.4763 68.567C59.4511 67.9128 59.5577 67.2604 59.7895 66.6489C60.0213 66.0375 60.3736 65.4797 60.8251 65.0093C61.2766 64.5388 61.818 64.1655 62.4165 63.9117C63.0151 63.658 63.6584 63.5291 64.3077 63.5329C65.1599 63.4981 66.0034 63.7169 66.7332 64.1619C67.4629 64.6069 68.0467 65.2585 68.4118 66.0356L67.2361 66.8935C66.5486 65.5528 65.6008 64.8884 64.2841 64.8884C62.472 64.8884 60.9884 66.4371 60.9884 68.5679C60.9884 70.6696 62.3737 72.2455 64.2699 72.2455C65.56 72.2455 66.5751 71.6231 67.3034 70.2404L68.4398 71.0558Z" fill="#222226"/>
<path fill-rule="evenodd" clip-rule="evenodd" d="M73.4683 73.4066H74.9494V63.7266H73.4683V73.4066Z" fill="#222226"/>
<path fill-rule="evenodd" clip-rule="evenodd" d="M80.5449 63.7266H86.859V65.0544H82.0261V67.7368H86.4745V69.0646H82.0261V72.0792H86.8997V73.4071H80.5449V63.7266Z" fill="#222226"/>
<path fill-rule="evenodd" clip-rule="evenodd" d="M95.7227 67.7922C97.7932 68.1933 98.8245 69.0646 98.8245 70.6821C98.8245 72.2451 97.4799 73.6031 95.3102 73.6031C93.0192 73.6031 91.6874 72.2753 91.3716 70.5469L92.6755 69.8696C92.948 71.4594 93.8408 72.3035 95.2974 72.3035C96.5743 72.3035 97.3419 71.598 97.3419 70.741C97.3419 69.7305 96.5473 69.2874 94.8992 68.9705C93.115 68.624 91.8111 67.7531 91.8111 66.1213C91.8111 64.5865 93.1695 63.535 95.1044 63.535C95.877 63.4873 96.6436 63.6972 97.2861 64.1322C97.9286 64.5672 98.4114 65.2032 98.66 65.9421L97.4813 66.6352C97.3478 66.1047 97.0376 65.6366 96.6026 65.3091C96.1675 64.9817 95.6341 64.8149 95.0917 64.8365C94.0766 64.8365 93.2117 65.2668 93.2117 66.0961C93.2117 66.9674 94.0358 67.465 95.7242 67.7962" fill="#222226"/>
<path fill-rule="evenodd" clip-rule="evenodd" d="M24.4958 23.154C24.4958 20.7879 23.0549 19.6685 20.9682 19.6685H19.6506V26.6394H20.9682C23.0554 26.6394 24.4958 25.519 24.4958 23.154ZM18.1675 18.3135H20.9397C23.8652 18.3135 26.0069 19.9874 26.0069 23.154C26.0069 26.3206 23.8652 27.994 20.9397 27.994H18.1675V18.3135Z" fill="#222226"/>
<path fill-rule="evenodd" clip-rule="evenodd" d="M35.9385 24.5506C35.9385 26.8875 34.3596 28.1885 32.1895 28.1885C30.0193 28.1885 28.4429 26.8879 28.4429 24.5506V18.3125H29.925V24.5071C29.9014 24.8147 29.9435 25.1238 30.0485 25.4137C30.1534 25.7035 30.3187 25.9674 30.5333 26.1874C30.7478 26.4074 31.0067 26.5785 31.2924 26.6892C31.5781 26.7999 31.884 26.8476 32.1895 26.829C32.4952 26.8479 32.8014 26.8005 33.0875 26.69C33.3735 26.5795 33.6327 26.4084 33.8476 26.1884C34.0625 25.9684 34.2282 25.7044 34.3333 25.4144C34.4385 25.1244 34.4808 24.815 34.4574 24.5071V18.3145H35.9385V24.5506Z" fill="#222226"/>
<path fill-rule="evenodd" clip-rule="evenodd" d="M37.9356 18.3135H45.3482V19.6705H42.3815V27.994H40.9003V19.6705H37.9346L37.9356 18.3135Z" fill="#222226"/>
<path fill-rule="evenodd" clip-rule="evenodd" d="M55.6268 25.6432C54.6259 27.2888 53.4988 28.1884 51.4269 28.1884C48.6939 28.1884 46.6632 26.1125 46.6632 23.1543C46.6383 22.5003 46.745 21.8479 46.977 21.2365C47.2089 20.6252 47.5614 20.0676 48.0129 19.5973C48.4645 19.127 49.0059 18.7538 49.6045 18.5002C50.2031 18.2466 50.8464 18.1179 51.4956 18.1218C52.348 18.087 53.1917 18.3057 53.9217 18.7508C54.6516 19.1959 55.2355 19.8477 55.6007 20.6249L54.4221 21.4819C53.7346 20.1412 52.7867 19.4768 51.4701 19.4768C49.6579 19.4768 48.1743 21.0255 48.1743 23.1563C48.1743 25.258 49.5597 26.8338 51.4563 26.8338C52.746 26.8338 53.7611 26.2115 54.4894 24.8292L55.6268 25.6432Z" fill="#222226"/>
<path fill-rule="evenodd" clip-rule="evenodd" d="M58.0918 18.3135H59.573V22.3787H64.0478V18.3135H65.5324V27.994H64.0478V23.7337H59.573V27.994H58.0918V18.3135Z" fill="#222226"/>
<path fill-rule="evenodd" clip-rule="evenodd" d="M19.1135 45.6027C19.1135 43.2372 17.6731 42.1173 15.5864 42.1173H14.2683V49.0881H15.5864C17.6736 49.0881 19.1135 47.9687 19.1135 45.6027ZM12.7856 40.7627H15.5579C18.4829 40.7627 20.6246 42.4366 20.6246 45.6027C20.6246 48.7688 18.4829 50.4427 15.5579 50.4427H12.7856V40.7627Z" fill="#222226"/>
<path fill-rule="evenodd" clip-rule="evenodd" d="M25.4634 50.4422H26.9445V40.7617H25.4634V50.4422Z" fill="#222226"/>
<path fill-rule="evenodd" clip-rule="evenodd" d="M39.4303 48.9489C39.1383 49.4845 38.703 49.9266 38.1738 50.2248C37.6447 50.523 37.0431 50.6654 36.4376 50.6357C33.7326 50.6357 31.7549 48.5201 31.7549 45.6016C31.7362 44.9479 31.8477 44.2972 32.0827 43.6877C32.3178 43.0782 32.6716 42.5224 33.1234 42.0532C33.5751 41.5839 34.1156 41.2107 34.7128 40.9556C35.3101 40.7005 35.952 40.5687 36.6006 40.568C37.4337 40.5396 38.258 40.7461 38.9811 41.1641C39.7041 41.5822 40.2971 42.1953 40.6934 42.9345L39.5664 43.7222C39.293 43.1612 38.8658 42.691 38.3353 42.3673C37.8048 42.0437 37.1934 41.8802 36.5736 41.8963C34.7752 41.8963 33.2661 43.3489 33.2661 45.6026C33.2661 47.8018 34.5699 49.2811 36.4636 49.2811C38.207 49.2811 39.0861 48.1607 39.2928 46.6546H36.0516V45.4224H40.7735V50.4421H39.7864L39.4303 48.9489Z" fill="#222226"/>
<path fill-rule="evenodd" clip-rule="evenodd" d="M45.918 50.4422H47.3991V40.7617H45.918V50.4422Z" fill="#222226"/>
<path fill-rule="evenodd" clip-rule="evenodd" d="M51.6924 40.7617H59.1036V42.1163H56.1378V50.4422H54.6567V42.1163H51.6909L51.6924 40.7617Z" fill="#222226"/>
<path fill-rule="evenodd" clip-rule="evenodd" d="M65.6773 43.3896L64.5094 46.4468H67.5022L66.3373 43.3896C66.1438 42.8916 66.0078 42.4633 66.0078 42.4633C66.0078 42.4633 65.8708 42.8916 65.6773 43.3896ZM65.2652 40.7627H66.7498L70.5917 50.4432H69.0275L67.9962 47.7469H64.0154L62.9841 50.4432H61.4189L65.2652 40.7627Z" fill="#222226"/>
<path fill-rule="evenodd" clip-rule="evenodd" d="M74.8335 40.7617H76.3156V49.1144H81.1343V50.4422H74.8335V40.7617Z" fill="#222226"/>
<path fill-rule="evenodd" clip-rule="evenodd" d="M12.0591 66.3535L10.8913 69.4107H13.884L12.7162 66.3535C12.5247 65.8554 12.3867 65.4272 12.3867 65.4272C12.3867 65.4272 12.2501 65.8554 12.0591 66.3535ZM11.6461 63.7266H13.1287L16.973 73.4071H15.4069L14.3756 70.7108H10.3967L9.36542 73.4071H7.80078L11.6461 63.7266Z" fill="#222226"/>
<path fill-rule="evenodd" clip-rule="evenodd" d="M28.3166 71.9128C28.0248 72.4485 27.5894 72.8908 27.0602 73.189C26.5311 73.4873 25.9294 73.6295 25.3238 73.5996C22.6193 73.5996 20.6417 71.484 20.6417 68.566C20.6229 67.9123 20.7343 67.2615 20.9693 66.652C21.2043 66.0425 21.558 65.4867 22.0097 65.0174C22.4614 64.5481 23.0019 64.1748 23.5991 63.9197C24.1963 63.6645 24.8382 63.5327 25.4869 63.5319C26.3198 63.5034 27.1441 63.7096 27.8672 64.1275C28.5902 64.5454 29.1833 65.1584 29.5797 65.8974L28.4531 66.6851C28.1797 66.1241 27.7525 65.6539 27.222 65.3302C26.6916 65.0066 26.0802 64.8431 25.4603 64.8592C23.6619 64.8592 22.1528 66.3118 22.1528 68.566C22.1528 70.7647 23.4567 72.2435 25.3508 72.2435C27.0942 72.2435 27.9733 71.1231 28.18 69.6195H24.9388V68.3863H29.6607V73.4065H28.6741L28.3166 71.9128Z" fill="#222226"/>
<path fill-rule="evenodd" clip-rule="evenodd" d="M35.1187 63.7266H41.4327V65.0544H36.5998V67.7368H41.0487V69.0646H36.6008V72.0792H41.4745V73.4071H35.1196L35.1187 63.7266Z" fill="#222226"/>
<path fill-rule="evenodd" clip-rule="evenodd" d="M46.6768 63.7266H48.1859L52.4982 70.4727C52.6493 70.7091 52.7872 70.9539 52.9113 71.2059V63.7266H54.3354V73.4075H52.8263L48.5154 66.6605C48.3647 66.4245 48.2275 66.18 48.1044 65.9282V73.4075H46.6768V63.7266Z" fill="#222226"/>
<path fill-rule="evenodd" clip-rule="evenodd" d="M68.4398 71.0558C67.4389 72.7014 66.3119 73.6005 64.2399 73.6005C61.507 73.6005 59.4763 71.5251 59.4763 68.567C59.4511 67.9128 59.5577 67.2604 59.7895 66.6489C60.0213 66.0375 60.3736 65.4797 60.8251 65.0093C61.2766 64.5388 61.818 64.1655 62.4165 63.9117C63.0151 63.658 63.6584 63.5291 64.3077 63.5329C65.1599 63.4981 66.0034 63.7169 66.7332 64.1619C67.4629 64.6069 68.0467 65.2585 68.4118 66.0356L67.2361 66.8935C66.5486 65.5528 65.6008 64.8884 64.2841 64.8884C62.472 64.8884 60.9884 66.4371 60.9884 68.5679C60.9884 70.6696 62.3737 72.2455 64.2699 72.2455C65.56 72.2455 66.5751 71.6231 67.3034 70.2404L68.4398 71.0558Z" fill="#222226"/>
<path fill-rule="evenodd" clip-rule="evenodd" d="M73.4683 73.4066H74.9494V63.7266H73.4683V73.4066Z" fill="#222226"/>
<path fill-rule="evenodd" clip-rule="evenodd" d="M80.5449 63.7266H86.859V65.0544H82.0261V67.7368H86.4745V69.0646H82.0261V72.0792H86.8997V73.4071H80.5449V63.7266Z" fill="#222226"/>
</g>
<defs>
<clipPath id="clip0_6_12597">
<rect width="106.667" height="80" fill="white"/>
</clipPath>
</defs>
</svg>
