<svg width="166" height="40" viewBox="0 0 166 40" fill="none" xmlns="http://www.w3.org/2000/svg">
<rect x="0.5" y="0.5" width="165" height="39" stroke="#222226"/>
<path d="M13.548 15.4L14.304 21.832L14.46 24.04H14.592L15.324 17.8H17.184L17.868 24.04H18L18.18 21.832L18.948 15.4H20.124L18.948 25H16.992L16.284 18.604H16.152L15.396 25H13.452L12.276 15.4H13.548ZM24.6023 25.192C23.4343 25.192 22.5583 24.776 21.9743 23.944C21.3903 23.112 21.0983 21.864 21.0983 20.2C21.0983 18.536 21.3903 17.288 21.9743 16.456C22.5583 15.624 23.4343 15.208 24.6023 15.208C25.7703 15.208 26.6463 15.624 27.2303 16.456C27.8143 17.288 28.1063 18.536 28.1063 20.2C28.1063 21.864 27.8143 23.112 27.2303 23.944C26.6463 24.776 25.7703 25.192 24.6023 25.192ZM24.6023 23.908C25.3383 23.908 25.8783 23.608 26.2223 23.008C26.5663 22.408 26.7383 21.472 26.7383 20.2C26.7383 18.928 26.5663 17.992 26.2223 17.392C25.8783 16.792 25.3383 16.492 24.6023 16.492C23.8663 16.492 23.3263 16.792 22.9823 17.392C22.6383 17.992 22.4663 18.928 22.4663 20.2C22.4663 21.472 22.6383 22.408 22.9823 23.008C23.3263 23.608 23.8663 23.908 24.6023 23.908ZM30.1847 25V15.4H33.4367C34.0527 15.4 34.5887 15.512 35.0447 15.736C35.5007 15.96 35.8527 16.28 36.1007 16.696C36.3567 17.112 36.4847 17.604 36.4847 18.172C36.4847 18.708 36.3567 19.176 36.1007 19.576C35.8447 19.976 35.4887 20.292 35.0327 20.524C34.5767 20.748 34.0447 20.86 33.4367 20.86H31.5527V25H30.1847ZM35.1647 25L32.5727 20.62H34.0487L36.7247 25H35.1647ZM31.5527 19.672H33.4607C33.9647 19.672 34.3647 19.536 34.6607 19.264C34.9647 18.992 35.1167 18.632 35.1167 18.184C35.1167 17.728 34.9647 17.364 34.6607 17.092C34.3647 16.82 33.9647 16.684 33.4607 16.684H31.5527V19.672ZM38.323 25V15.4H41.011C42.307 15.4 43.279 15.804 43.927 16.612C44.583 17.412 44.911 18.608 44.911 20.2C44.911 21.792 44.583 22.992 43.927 23.8C43.279 24.6 42.307 25 41.011 25H38.323ZM39.691 23.716H41.011C41.859 23.716 42.491 23.428 42.907 22.852C43.331 22.268 43.543 21.384 43.543 20.2C43.543 19.008 43.331 18.124 42.907 17.548C42.491 16.972 41.859 16.684 41.011 16.684H39.691V23.716ZM55.5717 25V15.4H58.8597C59.4677 15.4 59.9957 15.516 60.4437 15.748C60.8917 15.98 61.2397 16.308 61.4877 16.732C61.7357 17.148 61.8597 17.644 61.8597 18.22C61.8597 18.796 61.7357 19.296 61.4877 19.72C61.2397 20.136 60.8917 20.46 60.4437 20.692C59.9957 20.916 59.4677 21.028 58.8597 21.028H56.9397V25H55.5717ZM56.9397 19.804H58.9077C59.3957 19.804 59.7797 19.664 60.0597 19.384C60.3477 19.104 60.4917 18.724 60.4917 18.244C60.4917 17.764 60.3477 17.384 60.0597 17.104C59.7797 16.824 59.3957 16.684 58.9077 16.684H56.9397V19.804ZM63.0381 25L65.4981 15.4H67.7301L70.1901 25H68.7621L66.6381 16.42H66.5181L64.3821 25H63.0381ZM64.5381 21.748V20.452H68.6901V21.748H64.5381ZM72.1964 25V15.4H75.4484C76.0644 15.4 76.6004 15.512 77.0564 15.736C77.5124 15.96 77.8644 16.28 78.1124 16.696C78.3684 17.112 78.4964 17.604 78.4964 18.172C78.4964 18.708 78.3684 19.176 78.1124 19.576C77.8564 19.976 77.5004 20.292 77.0444 20.524C76.5884 20.748 76.0564 20.86 75.4484 20.86H73.5644V25H72.1964ZM77.1764 25L74.5844 20.62H76.0604L78.7364 25H77.1764ZM73.5644 19.672H75.4724C75.9764 19.672 76.3764 19.536 76.6724 19.264C76.9764 18.992 77.1284 18.632 77.1284 18.184C77.1284 17.728 76.9764 17.364 76.6724 17.092C76.3764 16.82 75.9764 16.684 75.4724 16.684H73.5644V19.672ZM82.7348 25V16.684H79.9028V15.4H86.9348V16.684H84.1028V25H82.7348ZM88.6531 25V15.4H90.9811L93.6451 24.124H93.7771L93.7291 21.364V15.4H94.9891V25H92.6611L89.9971 16.276H89.8651L89.9131 19.036V25H88.6531ZM97.7034 25V15.4H103.379V16.684H99.0714V19.564H102.779V20.764H99.0714V23.716H103.259V25H97.7034ZM105.806 25V15.4H109.058C109.674 15.4 110.21 15.512 110.666 15.736C111.122 15.96 111.474 16.28 111.722 16.696C111.978 17.112 112.106 17.604 112.106 18.172C112.106 18.708 111.978 19.176 111.722 19.576C111.466 19.976 111.11 20.292 110.654 20.524C110.198 20.748 109.666 20.86 109.058 20.86H107.174V25H105.806ZM110.786 25L108.194 20.62H109.67L112.346 25H110.786ZM107.174 19.672H109.082C109.586 19.672 109.986 19.536 110.282 19.264C110.586 18.992 110.738 18.632 110.738 18.184C110.738 17.728 110.586 17.364 110.282 17.092C109.986 16.82 109.586 16.684 109.082 16.684H107.174V19.672Z" fill="#222226"/>
<rect x="125" width="1" height="40" fill="#222226"/>
<path d="M146 15L151 20.0001L146 25.0002" stroke="#222226" stroke-width="1.5" stroke-miterlimit="4.62023"/>
<path d="M141 20L151 20" stroke="#222226" stroke-width="1.5" stroke-miterlimit="4.62023" stroke-linejoin="round"/>
</svg>
