<svg width="133" height="40" viewBox="0 0 133 40" fill="none" xmlns="http://www.w3.org/2000/svg">
<rect x="0.5" y="0.5" width="132" height="39" stroke="#222226"/>
<path d="M13.548 15.4L14.304 21.832L14.46 24.04H14.592L15.324 17.8H17.184L17.868 24.04H18L18.18 21.832L18.948 15.4H20.124L18.948 25H16.992L16.284 18.604H16.152L15.396 25H13.452L12.276 15.4H13.548ZM24.6023 25.192C23.4343 25.192 22.5583 24.776 21.9743 23.944C21.3903 23.112 21.0983 21.864 21.0983 20.2C21.0983 18.536 21.3903 17.288 21.9743 16.456C22.5583 15.624 23.4343 15.208 24.6023 15.208C25.7703 15.208 26.6463 15.624 27.2303 16.456C27.8143 17.288 28.1063 18.536 28.1063 20.2C28.1063 21.864 27.8143 23.112 27.2303 23.944C26.6463 24.776 25.7703 25.192 24.6023 25.192ZM24.6023 23.908C25.3383 23.908 25.8783 23.608 26.2223 23.008C26.5663 22.408 26.7383 21.472 26.7383 20.2C26.7383 18.928 26.5663 17.992 26.2223 17.392C25.8783 16.792 25.3383 16.492 24.6023 16.492C23.8663 16.492 23.3263 16.792 22.9823 17.392C22.6383 17.992 22.4663 18.928 22.4663 20.2C22.4663 21.472 22.6383 22.408 22.9823 23.008C23.3263 23.608 23.8663 23.908 24.6023 23.908ZM30.1847 25V15.4H33.4367C34.0527 15.4 34.5887 15.512 35.0447 15.736C35.5007 15.96 35.8527 16.28 36.1007 16.696C36.3567 17.112 36.4847 17.604 36.4847 18.172C36.4847 18.708 36.3567 19.176 36.1007 19.576C35.8447 19.976 35.4887 20.292 35.0327 20.524C34.5767 20.748 34.0447 20.86 33.4367 20.86H31.5527V25H30.1847ZM35.1647 25L32.5727 20.62H34.0487L36.7247 25H35.1647ZM31.5527 19.672H33.4607C33.9647 19.672 34.3647 19.536 34.6607 19.264C34.9647 18.992 35.1167 18.632 35.1167 18.184C35.1167 17.728 34.9647 17.364 34.6607 17.092C34.3647 16.82 33.9647 16.684 33.4607 16.684H31.5527V19.672ZM38.323 25V15.4H41.011C42.307 15.4 43.279 15.804 43.927 16.612C44.583 17.412 44.911 18.608 44.911 20.2C44.911 21.792 44.583 22.992 43.927 23.8C43.279 24.6 42.307 25 41.011 25H38.323ZM39.691 23.716H41.011C41.859 23.716 42.491 23.428 42.907 22.852C43.331 22.268 43.543 21.384 43.543 20.2C43.543 19.008 43.331 18.124 42.907 17.548C42.491 16.972 41.859 16.684 41.011 16.684H39.691V23.716ZM56.1717 25V15.4H57.5397V23.716H61.6077V25H56.1717ZM63.5301 25V23.716H65.9301V16.684H63.5301V15.4H69.6981V16.684H67.2981V23.716H69.6981V25H63.5301ZM71.9324 25V15.4H74.6204C75.9164 15.4 76.8884 15.804 77.5364 16.612C78.1924 17.412 78.5204 18.608 78.5204 20.2C78.5204 21.792 78.1924 22.992 77.5364 23.8C76.8884 24.6 75.9164 25 74.6204 25H71.9324ZM73.3004 23.716H74.6204C75.4684 23.716 76.1004 23.428 76.5164 22.852C76.9404 22.268 77.1524 21.384 77.1524 20.2C77.1524 19.008 76.9404 18.124 76.5164 17.548C76.1004 16.972 75.4684 16.684 74.6204 16.684H73.3004V23.716Z" fill="#222226"/>
<rect x="92" width="1" height="40" fill="#222226"/>
<path d="M113 15L118 20.0001L113 25.0002" stroke="#222226" stroke-width="1.5" stroke-miterlimit="4.62023"/>
<path d="M108 20L118 20" stroke="#222226" stroke-width="1.5" stroke-miterlimit="4.62023" stroke-linejoin="round"/>
</svg>
